<svg width="30" height="30" viewBox="0 0 30 30" fill="none" xmlns="http://www.w3.org/2000/svg" preserveAspectRatio="xMidYMid meet">
<path d="M24 0H6C2.685 0 0 3.35625 0 7.5V22.5C0 26.6438 2.685 30 6 30H24C27.315 30 30 26.6438 30 22.5V7.5C30 3.35625 27.315 0 24 0ZM21.21 18.3188C20.85 18.6938 20.355 18.8438 19.89 18.6938L3.225 13.5938C3.675 12.225 4.74 11.25 6 11.25H24C25.005 11.25 25.89 11.8875 26.445 12.825L21.21 18.3188ZM6 3.75H24C25.65 3.75 27 5.4375 27 7.5V8.53125C26.115 7.89375 25.095 7.5 24 7.5H6C4.905 7.5 3.885 7.89375 3 8.53125V7.5C3 5.4375 4.35 3.75 6 3.75Z" fill="black"/>
</svg>
